<svg width="150" height="28" viewBox="0 0 150 28" fill="none" xmlns="http://www.w3.org/2000/svg">
<path d="M19.1352 26.4198C12.2756 29.5406 4.25288 26.4904 1.1735 19.56C-1.89085 12.663 1.2575 4.55815 8.15817 1.51035C14.9714 -1.49888 22.9745 1.57307 25.9981 8.46612C28.9808 15.265 25.97 23.3149 19.1352 26.4198ZM25.3315 8.64169C22.4094 2.12609 14.7967 -0.753236 8.28605 2.1957C1.83105 5.11926 -1.09731 12.8373 1.79699 19.2996C4.72972 25.8475 12.3526 28.7638 18.8276 25.8151C25.3554 22.843 28.2602 15.1722 25.3315 8.64169Z" fill="#20262B"/>
<path d="M24.2258 8.82832C25.6094 12.0346 25.7842 15.0308 24.7556 18.0709C23.8514 20.7447 22.199 22.8568 19.8154 24.3623C17.7016 25.6974 15.3831 26.3328 12.8927 26.1689C9.00112 25.9127 5.90027 24.171 3.65325 20.9736C2.05418 18.6982 1.31974 16.1333 1.48886 13.3458C1.71441 9.63439 3.2678 6.56669 6.24332 4.33437C9.4588 1.92217 13.0517 1.3144 16.8906 2.47287C19.6121 3.29438 21.7565 4.94296 23.3432 7.30733C23.7229 7.87345 24.0303 8.48918 24.2258 8.82832ZM23.8884 9.18964C23.8881 9.18956 23.8874 9.18883 23.8872 9.18861C23.753 8.93187 23.5711 8.57771 23.3827 8.22721C23.2996 8.07338 23.2073 7.92442 23.1122 7.77798C21.591 5.42418 19.5153 3.77375 16.8474 2.9362C13.3812 1.84828 10.0888 2.31142 7.04425 4.31299C4.76341 5.81269 3.22248 7.91693 2.44357 10.5368C1.35906 14.1858 1.88688 17.6301 4.04967 20.7352C6.28844 23.9499 9.4328 25.6134 13.3489 25.7263C15.7076 25.7945 17.8798 25.1207 19.843 23.8029C22.0203 22.3414 23.5269 20.3445 24.3522 17.8522C25.3142 14.9471 25.1348 12.089 23.8884 9.18964C23.8886 9.18974 23.8883 9.18939 23.8884 9.18964Z" fill="#20262B"/>
<path d="M23.2229 9.47745C24.3326 12.0473 24.495 14.5713 23.6834 17.1379C22.8962 19.6268 21.4025 21.6055 19.206 23.0013C16.321 24.8345 13.2205 25.2569 9.96917 24.2211C7.59796 23.4657 5.70751 22.022 4.37491 19.908C2.62191 17.1273 2.22876 14.1301 3.20544 10.9786C3.97799 8.48423 5.48199 6.5085 7.67922 5.11433C10.5783 3.27407 13.6907 2.85389 16.9569 3.90858C19.2961 4.66384 21.1361 6.10619 22.4925 8.16637C22.5886 8.31231 22.6809 8.46126 22.7648 8.61407C22.9392 8.93317 23.1061 9.25695 23.2229 9.47745ZM22.8827 9.79498C22.8832 9.79477 22.8833 9.79421 22.8831 9.79378C22.649 9.37004 22.4482 8.96506 22.2093 8.58321C20.885 6.46355 19.0254 5.01601 16.6495 4.28841C13.5346 3.33465 10.5761 3.77633 7.83953 5.55154C5.75861 6.90169 4.33601 8.79546 3.61715 11.1788C2.68123 14.2816 3.1155 17.2081 4.90885 19.8923C6.22346 21.8593 8.0538 23.1676 10.3088 23.8548C12.6291 24.5622 14.9297 24.4479 17.1838 23.5452C18.9712 22.8294 20.4803 21.7154 21.6181 20.1508C23.9619 16.9278 24.3361 13.4569 22.8823 9.79608C22.8821 9.79566 22.8823 9.79517 22.8827 9.79498Z" fill="#20262B"/>
<path d="M17.1098 11.6371C17.3963 11.6167 17.6662 11.5824 17.9358 11.5813C18.8276 11.5794 19.5403 11.9402 20.0433 12.6841C20.4872 13.3402 20.7452 14.0701 20.8141 14.8613C20.8966 15.8111 20.55 16.607 19.911 17.2905C19.3834 17.8545 18.7508 18.2772 18.0896 18.6615C17.9827 18.7238 17.8746 18.7844 17.7635 18.8467C17.6637 18.9027 17.6232 19.0259 17.6699 19.1302C18.0159 19.9027 18.3603 20.676 18.7093 21.4466C18.7513 21.5403 18.7495 21.5905 18.6461 21.6377C17.7712 22.0368 16.8992 22.4409 16.0258 22.8432C15.9779 22.8651 15.9219 22.8379 15.9004 22.7898L15.3711 21.6081C15.0279 20.842 14.1306 20.5033 13.3668 20.8517L12.0588 21.4484C11.5712 21.6708 10.9984 21.4546 10.7794 20.9655L10.5317 20.4125C10.4495 20.2289 10.5328 20.0159 10.7142 19.9289C10.8448 19.8655 10.9776 19.8042 11.1037 19.732C11.3837 19.5702 11.4786 19.2761 11.3448 18.9772C10.9114 18.0096 10.4762 17.0423 10.0402 16.0759C9.4939 14.866 8.94491 13.6574 8.39803 12.4477C8.19027 11.9881 7.77856 11.816 7.30792 11.9999C7.05145 12.0995 6.76288 12.0019 6.65037 11.7507L6.49699 11.4083C6.29976 10.9679 6.49576 10.4486 6.93476 10.2484L8.40519 9.57765C9.12434 9.24962 9.44541 8.39892 9.12233 7.67756L8.97803 7.35539C8.73465 6.81196 8.97652 6.1711 9.51828 5.92398C10.0395 5.68624 10.5617 5.45062 11.0798 5.20594C11.1957 5.15114 11.2447 5.16922 11.2961 5.28692C11.6233 6.03021 11.9576 6.77089 12.2895 7.512C12.3897 7.73577 12.3876 7.72967 12.6142 7.6539C13.3015 7.42321 14.0003 7.24559 14.7293 7.23515C15.6654 7.22206 16.4605 7.51896 17.0239 8.30784C17.4504 8.90508 17.7102 9.55783 17.65 10.3103C17.6148 10.7492 17.4485 11.1408 17.2018 11.501C17.172 11.544 17.143 11.5874 17.1098 11.6371ZM12.7424 15.0405C12.7045 15.0588 12.6789 15.1039 12.6961 15.1423C13.1614 16.1755 13.6283 17.2079 14.0918 18.2413C14.1326 18.3324 14.1802 18.3376 14.2609 18.2982C14.8234 18.0243 15.3976 17.7721 15.9477 17.4749C16.4702 17.193 16.9482 16.8415 17.3177 16.3605C17.9281 15.5662 17.6745 14.4525 16.7847 14.0627C16.3994 13.8939 15.9927 13.8998 15.5855 13.9642C14.5684 14.1254 13.6656 14.5933 12.7424 15.0405ZM11.9511 13.4887C11.9702 13.5314 12.0202 13.562 12.0621 13.5413C12.5658 13.2916 13.0796 13.0585 13.5705 12.7858C13.9956 12.5489 14.3719 12.2413 14.6512 11.827C15.2163 10.9886 14.6385 9.95799 13.9699 9.74836C13.5056 9.60276 13.0519 9.65895 12.5976 9.77954C11.9663 9.94688 11.3817 10.2315 10.799 10.5229C10.6816 10.5816 10.6562 10.6304 10.7129 10.7528C11.0249 11.4279 11.3289 12.1067 11.6353 12.7837C11.7406 13.0162 11.8441 13.2494 11.9511 13.4887Z" fill="#20262B"/>
<path d="M15.5223 23.0513C11.7833 24.2599 6.64045 22.6342 4.61767 17.8302C2.72144 13.3268 4.75566 8.78113 7.75323 6.73518C7.94444 6.60467 8.21576 6.68015 8.29012 6.89925C8.30107 6.93085 8.25497 7.00196 8.21719 7.02883C7.49765 7.5285 6.8493 8.10741 6.31458 8.80334C4.60304 11.0294 4.00632 13.5282 4.65743 16.2602C5.32454 19.0595 7.0198 21.0527 9.63597 22.2084C11.4222 22.9973 13.2838 23.1098 15.1789 22.6248C15.2901 22.5965 15.3381 22.6209 15.3762 22.7203C15.4191 22.832 15.4723 22.9396 15.5223 23.0513Z" fill="#20262B"/>
<path d="M19.1442 21.3629C19.0822 21.2243 19.0142 21.0909 18.9661 20.9504C18.9547 20.9177 19.0005 20.8474 19.0384 20.8179C19.7982 20.2299 20.4617 19.5477 20.9859 18.7397C22.4833 16.4316 22.8801 13.9437 22.0782 11.3124C21.3113 8.79671 19.6906 6.99993 17.3058 5.93179C15.6059 5.17016 13.8278 5.02017 12.0054 5.41811C11.8915 5.44312 11.8358 5.42423 11.7978 5.31506C11.7629 5.21414 11.7126 5.11892 11.6704 5.02007C11.6603 4.99769 11.6817 4.973 11.7053 4.96652C15.3594 3.96334 20.0929 5.59325 22.1263 9.9723C24.1791 14.3929 22.3485 19.1644 19.1442 21.3629C19.144 21.3626 19.1439 21.3631 19.1442 21.3629Z" fill="#20262B"/>
<path d="M140.309 21.0925V6.79199H149.16V9.00467H143.198V12.7539H147.746V14.9666H143.198V21.0925H140.309Z" fill="black"/>
<path d="M127.716 9.00467V6.79199H138.308V9.00467H134.436V21.0925H131.567V9.00467H127.716Z" fill="black"/>
<path d="M125.812 6.75293V8.96561H120.444V12.7149H125.197V14.9276H120.444V18.8817H125.812V21.0944H117.555V6.75293H125.812Z" fill="black"/>
<path d="M109.715 6.95605H111.149V21.0926H109.715L101.786 9.25069V21.0926H100.352V6.95605H101.786L109.715 18.798V6.95605Z" fill="black"/>
<path d="M96.0517 21.0926V6.95605H97.4858V21.0926H96.0517Z" fill="black"/>
<path d="M90.804 18.3705C91.8967 17.2642 92.4431 15.8164 92.4431 14.0271C92.4431 12.2379 91.9036 10.7969 90.8245 9.70421C89.7455 8.61152 88.3797 8.06518 86.727 8.06518C85.0743 8.06518 83.7016 8.61152 82.6089 9.70421C81.5299 10.7969 80.9904 12.2379 80.9904 14.0271C80.9904 15.8164 81.5299 17.2642 82.6089 18.3705C83.7016 19.4632 85.0675 20.0096 86.7065 20.0096C88.3592 20.0096 89.725 19.4632 90.804 18.3705ZM81.605 19.2105C80.2255 17.8447 79.5358 16.1169 79.5358 14.0271C79.5358 11.9374 80.2255 10.2164 81.605 8.86421C82.9982 7.49836 84.7055 6.81543 86.727 6.81543C88.7621 6.81543 90.4694 7.49836 91.8489 8.86421C93.2284 10.2164 93.9182 11.9374 93.9182 14.0271C93.9182 16.1169 93.2284 17.8447 91.8489 19.2105C90.4694 20.5627 88.7621 21.2388 86.727 21.2388C84.7055 21.2388 82.9982 20.5627 81.605 19.2105Z" fill="black"/>
<path d="M65.8198 19.19C64.4403 17.8379 63.7505 16.1169 63.7505 14.0271C63.7505 11.9374 64.4403 10.2164 65.8198 8.86421C67.213 7.49836 68.9203 6.81543 70.9418 6.81543C72.3896 6.81543 73.6735 7.14323 74.7935 7.79884C75.9271 8.45445 76.7808 9.41055 77.3544 10.6671H75.613C75.1759 9.83396 74.5476 9.19201 73.7281 8.74128C72.9086 8.29055 71.9798 8.06518 70.9418 8.06518C69.2891 8.06518 67.9232 8.61152 66.8442 9.70421C65.7652 10.7969 65.2257 12.2379 65.2257 14.0271C65.2257 15.8164 65.7652 17.2574 66.8442 18.3501C67.9232 19.4427 69.2891 19.9891 70.9418 19.9891C71.9798 19.9891 72.9086 19.7637 73.7281 19.313C74.5476 18.8486 75.1759 18.1998 75.613 17.3666H77.3544C76.7808 18.6232 75.9271 19.5793 74.7935 20.2349C73.6735 20.8905 72.3896 21.2183 70.9418 21.2183C68.9203 21.2183 67.213 20.5422 65.8198 19.19Z" fill="black"/>
<path d="M53.2985 8.12386V6.95605H62.1288V8.12386H58.4205V21.0926H57.0068V8.12386H53.2985Z" fill="black"/>
<path d="M49.5323 21.0926V6.95605H50.9664V21.0926H49.5323Z" fill="black"/>
<path d="M37.5555 6.95605H42.3291C43.7769 6.95605 44.8833 7.31118 45.6482 8.02142C46.4267 8.718 46.816 9.61947 46.816 10.7258C46.816 12.2965 45.9145 13.3209 44.1116 13.799C45.013 13.9492 45.7438 14.3658 46.3038 15.0487C46.8638 15.718 47.1438 16.5307 47.1438 17.4868C47.1438 18.4429 46.7204 19.2829 45.8735 20.0068C45.0267 20.7307 43.9204 21.0926 42.5545 21.0926H37.5555V6.95605ZM38.9896 8.12386V13.2253H42.3291C43.2852 13.2253 44.0296 13 44.5623 12.5492C45.095 12.0848 45.3613 11.4634 45.3613 10.6848C45.3613 9.9063 45.095 9.28483 44.5623 8.82044C44.0296 8.35605 43.2852 8.12386 42.3291 8.12386H38.9896ZM38.9896 19.9453H42.534C43.5584 19.9453 44.3506 19.6995 44.9106 19.2077C45.4706 18.716 45.7506 18.0399 45.7506 17.1795C45.7506 16.319 45.4364 15.6429 44.8082 15.1512C44.1935 14.6458 43.374 14.3931 42.3496 14.3931H38.9896V19.9453Z" fill="black"/>
</svg>
