<svg width="51" height="52" viewBox="0 0 51 52" fill="none" xmlns="http://www.w3.org/2000/svg">
<path d="M35.8227 48.7923C22.9809 54.6346 7.96174 48.9244 2.19689 35.9501C-3.53981 23.0384 2.35413 7.86548 15.2727 2.15975C28.0276 -3.47378 43.01 2.27715 48.6705 15.1815C54.2544 27.9095 48.618 42.9796 35.8227 48.7923ZM47.4225 15.5102C41.9522 3.31246 27.7007 -2.07787 15.5122 3.44278C3.42787 8.91592 -2.05425 23.3648 3.3641 35.4626C8.85441 47.7208 23.125 53.1804 35.2468 47.6602C47.4673 42.0962 52.9058 27.7368 47.423 15.5112L47.4225 15.5102Z" fill="#20262B"/>
<path d="M45.3543 15.8596C47.9445 21.862 48.2718 27.4712 46.3462 33.1625C44.6534 38.168 41.5601 42.122 37.0977 44.9404C33.1404 47.4399 28.8001 48.6293 24.1379 48.3225C16.8525 47.8428 11.0475 44.5824 6.84086 38.5964C3.84727 34.3368 2.47233 29.5351 2.78895 24.3166C3.21119 17.3686 6.11927 11.6256 11.6897 7.44652C17.7093 2.9307 24.4355 1.7929 31.6223 3.96166C36.717 5.49959 40.7316 8.58586 43.7019 13.0122C44.4128 14.072 44.9883 15.2247 45.3543 15.8596ZM44.7215 16.5349C44.7211 16.5348 44.7207 16.5345 44.7205 16.5341C44.4691 16.0534 44.1287 15.3904 43.7759 14.7342C43.6204 14.4462 43.4476 14.1674 43.2696 13.8932C40.4218 9.48674 36.5359 6.397 31.5413 4.82904C25.0523 2.79236 18.8886 3.6594 13.1891 7.4065C8.91915 10.2141 6.03443 14.1534 4.57624 19.058C2.54595 25.8891 3.53407 32.3372 7.58298 38.1502C11.7741 44.1684 17.6606 47.2825 24.9919 47.494C29.4076 47.6216 33.474 46.3601 37.1494 43.8931C41.2254 41.1571 44.046 37.4187 45.591 32.7529C47.3918 27.3143 47.0561 21.9638 44.7226 16.536C44.7224 16.5355 44.722 16.5351 44.7215 16.5349Z" fill="#20262B"/>
<path d="M43.4763 17.0748C43.4761 17.0749 43.4757 17.076 43.4758 17.0762C45.5533 21.8872 45.8579 26.6109 44.3384 31.4158C42.8648 36.0751 40.0685 39.7794 35.9564 42.3924C30.5555 45.8243 24.751 46.6152 18.6643 44.6761C14.2252 43.2619 10.6862 40.5591 8.19143 36.6016C4.90967 31.3958 4.17367 25.7849 6.00209 19.8851C7.44837 15.2154 10.264 11.5167 14.3774 8.90667C19.8046 5.46157 25.6314 4.67496 31.7459 6.64941C36.125 8.06333 39.5697 10.7635 42.1089 14.6203C42.2889 14.8936 42.4617 15.1724 42.6187 15.4585C42.9452 16.0558 43.2577 16.662 43.4763 17.0748C43.4766 17.0747 43.4765 17.0751 43.4763 17.0748ZM42.8395 17.6692C42.8403 17.6688 42.8407 17.6678 42.8402 17.667C42.4021 16.8737 42.0261 16.1155 41.5789 15.4007C39.0997 11.4325 35.6184 8.72262 31.1703 7.36048C25.3391 5.57498 19.8006 6.40183 14.6775 9.72516C10.7818 12.2528 8.11861 15.798 6.77284 20.2599C5.02072 26.0686 5.83371 31.5472 9.19101 36.5721C11.6521 40.2546 15.0786 42.7038 19.3002 43.9903C23.644 45.3147 27.9507 45.1007 32.1706 43.4107C35.5168 42.0707 38.3421 39.9853 40.4721 37.0562C44.8599 31.0224 45.5604 24.5247 42.8387 17.6713C42.8383 17.6705 42.8387 17.6696 42.8395 17.6692Z" fill="#20262B"/>
<path d="M32.0328 21.1172C32.5692 21.0792 33.075 21.0154 33.5798 21.0134C35.2494 21.0098 36.5836 21.6853 37.5253 23.0779C38.3563 24.3061 38.8392 25.6726 38.9682 27.1537C39.1227 28.9319 38.4738 30.4218 37.2777 31.7014C36.2898 32.7574 35.1056 33.5486 33.8679 34.2681C33.5635 34.4454 33.2546 34.6151 32.9275 34.8003C32.9865 34.932 33.0343 35.0387 33.0821 35.1455C33.7298 36.5917 34.3746 38.0394 35.0279 39.4819C35.1065 39.6575 35.1032 39.7515 34.9096 39.8398C33.2717 40.5868 31.6393 41.3435 30.0042 42.0965C29.9635 42.1151 29.9201 42.1277 29.8405 42.1556L27.6154 37.1874L20.9249 40.2391L19.44 36.9237C19.6515 36.8272 19.8577 36.738 20.0604 36.6407C20.3049 36.522 20.5536 36.4073 20.7895 36.2721C21.3138 35.9693 21.4915 35.4186 21.2409 34.859C20.4296 33.0477 19.615 31.2367 18.7988 29.4276C17.776 27.1627 16.7482 24.8999 15.7244 22.6354C15.3354 21.775 14.5647 21.4527 13.6836 21.7969C13.3995 21.9073 13.1268 22.0485 12.834 22.1821L11.497 19.1968L18.1755 16.1504L15.9852 11.2601C16.6205 10.9703 17.221 10.6964 17.8216 10.4224C18.7974 9.97733 19.7749 9.53624 20.7449 9.07819C20.9619 8.97558 21.0536 9.00944 21.1499 9.22978C21.7624 10.6213 22.3882 12.0079 23.0096 13.3953C23.1972 13.8142 23.1933 13.8028 23.6175 13.661C24.904 13.2291 26.2123 12.8966 27.5771 12.877C29.3294 12.8525 30.818 13.4083 31.8728 14.8852C32.6712 16.0033 33.1575 17.2253 33.0449 18.634C32.979 19.4556 32.6677 20.1886 32.2058 20.863C32.1499 20.9437 32.095 21.024 32.0328 21.1172ZM23.7347 27.5485C23.7521 27.6115 23.7565 27.6479 23.7708 27.6798C24.6419 29.614 25.5159 31.5469 26.3835 33.4814C26.4599 33.652 26.5492 33.6617 26.7002 33.588C27.7533 33.0752 28.8281 32.603 29.858 32.0467C30.8362 31.5189 31.731 30.8609 32.4227 29.9604C33.5654 28.4734 33.0906 26.3885 31.4249 25.6588C30.7036 25.3427 29.9422 25.3537 29.1798 25.4744C27.2309 25.7832 25.506 26.6937 23.7347 27.5485ZM22.438 24.7226C22.5158 24.7016 22.5525 24.698 22.5838 24.6826C23.5268 24.2151 24.4886 23.7789 25.4076 23.2684C26.2036 22.8248 26.9079 22.2489 27.4309 21.4734C28.4888 19.9038 27.4071 17.9744 26.1554 17.582C25.2862 17.3094 24.4367 17.4146 23.5863 17.6403C22.4044 17.9536 21.3101 18.4864 20.2192 19.032C19.9994 19.1419 19.9519 19.2332 20.0581 19.4623C20.6421 20.7262 21.2112 21.9969 21.7848 23.2644C22.0022 23.7443 22.2155 24.2259 22.438 24.7226Z" fill="#20262B"/>
<path d="M29.062 42.4861C22.0623 44.7487 12.4345 41.7053 8.64771 32.7118C5.09781 24.2811 8.90603 15.7712 14.5177 11.941C14.8757 11.6967 15.3836 11.838 15.5228 12.2482C15.5433 12.3074 15.457 12.4405 15.3863 12.4908C14.0393 13.4262 12.8255 14.51 11.8244 15.8128C8.62031 19.9801 7.5032 24.658 8.72214 29.7727C9.97103 35.0132 13.1447 38.7445 18.0424 40.9081C21.3863 42.3851 24.8714 42.5957 28.4192 41.6876C28.6274 41.6347 28.7172 41.6803 28.7885 41.8665C28.8689 42.0756 28.9685 42.2771 29.062 42.4861Z" fill="#20262B"/>
<path d="M35.8405 39.3253C35.7244 39.0658 35.5972 38.8161 35.5071 38.5531C35.4857 38.4919 35.5715 38.3602 35.6424 38.305C37.0649 37.2042 38.3071 35.9272 39.2884 34.4145C42.0917 30.0935 42.8345 25.436 41.3332 20.51C39.8976 15.8004 36.8635 12.4367 32.399 10.437C29.2167 9.01121 25.8878 8.7304 22.4762 9.47537C22.2629 9.5222 22.1586 9.48683 22.0875 9.28246C22.0222 9.09352 21.9281 8.91527 21.8489 8.73022C21.8302 8.68832 21.8701 8.64209 21.9143 8.62996C28.7551 6.75194 37.6167 9.80326 41.4233 18.0012C45.2664 26.2769 41.8397 35.208 35.841 39.3237C35.8404 39.3241 35.8402 39.3247 35.8405 39.3253Z" fill="#20262B"/>
</svg>
